<svg aria-hidden="true" style="position:absolute;width:0;height:0;overflow:hidden" xmlns="http://www.w3.org/2000/svg">
    <defs>
        <symbol id="icon-logo" viewBox="0 0 218 218">
            <path fill="#d41443"
                d="m75.29 213.79-1.71-13.48c-31.18-18.02-26.06-20.4-26.38-56.68l-13.18-16.16c5.32-19.84 8.67-9.86 12.39-27.75 4.79-23.04 11.3-63.05 62.47-64.58 40.97-1.23 60.41 25.97 66.29 60.7 3.81 22.47 7.32 10.9 11.95 30.87l-12.56 16.68c-.04 36.46 5.08 38.95-25.66 56.97l-2.06 13.43c42.94-18.65 65.45-52.36 70.85-87.58V92.07C210.5 45.12 174.02 3.35 116.34 0h-14.79C44.6 3.4 6.35 46.36.01 94.43v28.19c4.77 35.79 28.11 70.73 75.29 91.17z" />
            <path fill="#fefbfc"
                d="m60.21 143.46 50.04.17c1.97 14.79-.05 30.86 20.12 30.15 23.45-.83 10.23-19.97 26.36-30.58 10.13 14.64 7.35 27.36-4.59 40.98-15.89 5.25-47.43 3.25-65.38 2.77-30.58-.81-26.86-17.16-26.55-43.49zm-11.36-21.29c12.53-6.3 111.81-6.3 124.34 0-6.8 14.36-16.29 6.33-36.41 9.93-1.05 16.68 3.03 16.9-6.17 28.43-11.21-9.31-5.59-11.87-7.74-29.36l-62.23-.71c-20.61-3.28-7.73-4.49-11.79-8.3zm64.39-29.41c17.14-.49 31.41-12.69 46.29-12.85l5.91 24.93-106.8.27 4.32-25.13c15.82.11 31.23 13.33 50.28 12.78zM74.15 65.45c19.23-24.28 54.52-24.27 73.74 0-19.12 19.39-54.62 19.39-73.74 0zm1.14 148.34 13.38 4.36-1.63-17.38 47.43-1.04-.65 14.06h13.02l2.06-13.43c30.74-18.02 25.63-20.51 25.66-56.97l12.56-16.68c-4.63-19.97-8.15-8.41-11.95-30.87-5.88-34.73-25.32-61.93-66.29-60.7-51.17 1.54-57.68 41.55-62.47 64.58-3.72 17.89-7.07 7.91-12.39 27.75l13.18 16.16c.32 36.28-4.8 38.66 26.38 56.68l1.71 13.48z" />
            <path fill="#d41443"
                d="M156.73 143.19c-16.14 10.62-2.92 29.76-26.36 30.58-20.16.71-18.15-15.36-20.12-30.15l-50.04-.17c-.31 26.33-4.03 42.68 26.55 43.49 17.95.48 49.49 2.48 65.38-2.77 11.94-13.62 14.72-26.34 4.59-40.98z" />
            <path fill="#d41443"
                d="m58.64 105.11 106.8-.27-5.91-24.93c-14.87.17-29.15 12.36-46.29 12.85-19.06.54-34.46-12.68-50.28-12.78l-4.32 25.13zM173.19 122.16c-12.53-6.3-111.81-6.3-124.34 0 4.06 3.81-8.82 5.01 11.79 8.3l62.23.71c2.14 17.49-3.47 20.04 7.74 29.36 9.2-11.53 5.12-11.75 6.17-28.43 20.12-3.6 29.61 4.42 36.41-9.93z" />
            <path fill="#d41443"
                d="M74.15 65.45c19.12 19.39 54.62 19.39 73.74 0-19.22-24.27-54.51-24.28-73.74 0zM122.78 218.15c4.65-.69 8.56-2 11.05-4.36l.65-14.06-47.43 1.04 1.63 17.38h34.11z" />
        </symbol>
        <symbol id="icon-arrow" viewBox="0 0 26 32">
            <path fill="none" stroke="#d41443" style="stroke:var(--color1, #d41443)" stroke-linejoin="round"
                stroke-linecap="round" stroke-width="6.4" d="M5.172 3.2 19.341 16 5.172 28.8" />
        </symbol>
        <symbol id="arrow-right" viewBox="0 0 32 32">
            <path
                d="m19.4 27.4 10-10c.8-.8.8-2 0-2.8l-10-10a2 2 0 1 0-2.8 2.8l6.6 6.6H4a2 2 0 1 0 0 4h19.2l-6.6 6.6a2 2 0 0 0 0 2.8c.8.8 2 .8 2.8 0z" />
        </symbol>
        <symbol id="burger" viewBox="0 0 46 32">
            <path fill="none" stroke="#d41443" style="stroke:var(--color1, #d41443)" stroke-width="2.3"
                d="M0 2.3h45.7M0 16h45.7M0 29.7h45.7" />
        </symbol>
        <symbol id="close" viewBox="0 0 32 32">
            <path fill="none" stroke="#fff" style="stroke:var(--color2, #fff)" stroke-width="2"
                d="m2.5 2 27 28M2 29.5l28-27" />
        </symbol>
        <symbol id="chevron-up" viewBox="0 0 28 32">
            <path
                d="M15.061 8.158l12.146 12.146c0.586 0.586 0.586 1.536 0 2.121l-1.417 1.417c-0.585 0.585-1.533 0.586-2.119 0.003l-9.672-9.626-9.672 9.626c-0.586 0.583-1.534 0.582-2.119-0.003l-1.417-1.417c-0.586-0.586-0.586-1.536 0-2.121l12.146-12.146c0.586-0.586 1.536-0.586 2.121-0z">
            </path>
        </symbol>
        <symbol id="icon-uber-eats" viewBox="0 0 196 32">
            <path fill="#05c167" style="fill: var(--color1, #05c167)"
                d="M103.589-0.322h21.808v5.336h-15.917v7.577h15.475v5.155h-15.475v7.705h15.917v5.336h-21.808zM185.625 31.348c6.686 0 10.453-3.202 10.453-7.599 0-3.132-2.23-5.469-6.899-6.483l-4.936-1.009c-2.865-0.534-3.767-1.067-3.767-2.134 0-1.382 1.382-2.23 3.927-2.23 2.759 0 4.802 0.742 5.336 3.292h5.784c-0.315-4.802-3.767-7.972-10.768-7.972-6.051 0-10.299 2.497-10.299 7.337 0 3.346 2.337 5.523 7.38 6.585l5.517 1.275c2.177 0.427 2.759 1.014 2.759 1.916 0 1.435-1.643 2.337-4.301 2.337-3.34 0-5.251-0.742-5.992-3.292h-5.816c0.848 4.792 4.402 7.977 11.622 7.977zM172.322 30.766h-6.259c-3.927 0-6.104-2.444-6.104-5.528v-12.22h-4.402v-5.208h4.424v-6.537h5.816v6.537h6.526v5.208h-6.526v10.731c0 1.222 0.848 1.809 2.177 1.809h4.349zM147.243 7.821v2.070c-1.953-1.659-4.503-2.668-7.289-2.668-0.013 0-0.026 0-0.039 0h0.002c-0.076-0.002-0.165-0.003-0.254-0.003-6.663 0-12.065 5.402-12.065 12.065s5.402 12.065 12.065 12.065c0.089 0 0.178-0.001 0.267-0.003l-0.013 0c0.014 0 0.032 0 0.049 0 2.782 0 5.329-1.009 7.293-2.681l-0.016 0.013v2.076h5.8v-22.945zM140.397 26.311c-0.024 0-0.052 0-0.080 0-3.875 0-7.017-3.142-7.017-7.017s3.142-7.017 7.017-7.017c3.875 0 7.017 3.142 7.017 7.017 0 0.002 0 0.003 0 0.005v-0c0 0.019 0 0.042 0 0.064 0 3.831-3.106 6.937-6.937 6.937-0.004 0-0.008 0-0.012 0h0.001z">
            </path>
            <path fill="#000" style="fill: var(--color2, #000)"
                d="M90.643 12.117c-2.919 0-4.989 2.284-4.989 5.79v12.86h-4.456v-22.636h4.402v2.764c1.059-1.764 2.962-2.926 5.137-2.926 0.059 0 0.118 0.001 0.176 0.003l-0.009-0h1.601v4.146zM78.12 19.449c0-6.75-4.802-11.798-11.302-11.798-6.399 0.045-11.569 5.243-11.569 11.648 0 0.053 0 0.105 0.001 0.158l-0-0.008c0 6.745 5.203 11.846 11.99 11.846 0.066 0.001 0.145 0.002 0.223 0.002 3.903 0 7.364-1.89 9.519-4.804l0.023-0.032-3.234-2.369c-1.449 2.004-3.779 3.293-6.411 3.293-0.042 0-0.085-0-0.127-0.001l0.006 0c-3.784-0.018-6.912-2.804-7.465-6.436l-0.005-0.042h18.361zM59.865 17.373c0.795-3.452 3.554-5.79 6.899-5.79s6.099 2.337 6.846 5.79zM41.136 7.651c-3.131 0.003-5.962 1.282-8.003 3.345l-0.001 0.001v-11.318h-4.456v31.088h4.402v-2.871c2.059 2.083 4.91 3.379 8.064 3.399l0.004 0c0.075 0.002 0.163 0.003 0.251 0.003 6.531 0 11.825-5.294 11.825-11.825s-5.294-11.825-11.825-11.825c-0.088 0-0.176 0.001-0.264 0.003l0.013-0zM40.815 27.314c-0.011 0-0.024 0-0.037 0-4.329 0-7.839-3.509-7.839-7.839s3.51-7.839 7.839-7.839c4.329 0 7.839 3.509 7.839 7.839 0 0.009-0 0.019-0 0.028v-0.001c0 0.003 0 0.007 0 0.011 0 4.297-3.483 7.78-7.78 7.78-0.008 0-0.015 0-0.023-0h0.001zM12.268 27.1c4.301 0 7.641-3.298 7.641-8.239v-19.183h4.616v31.088h-4.562v-2.94c-2.063 2.13-4.95 3.453-8.145 3.453-0.027 0-0.055-0-0.082-0l0.004 0c-6.633 0-11.739-4.834-11.739-12.166v-19.434h4.701v19.21c0 4.968 3.202 8.212 7.567 8.212z">
            </path>
        </symbol>
    </defs>
</svg>