<svg aria-hidden="true" style="position:absolute;width:0;height:0;overflow:hidden" xmlns="http://www.w3.org/2000/svg">
    <defs>
        <symbol id="icon-logo" viewBox="0 0 218 218">
            <path fill="#d41443"
                d="m75.29 213.79-1.71-13.48c-31.18-18.02-26.06-20.4-26.38-56.68l-13.18-16.16c5.32-19.84 8.67-9.86 12.39-27.75 4.79-23.04 11.3-63.05 62.47-64.58 40.97-1.23 60.41 25.97 66.29 60.7 3.81 22.47 7.32 10.9 11.95 30.87l-12.56 16.68c-.04 36.46 5.08 38.95-25.66 56.97l-2.06 13.43c42.94-18.65 65.45-52.36 70.85-87.58V92.07C210.5 45.12 174.02 3.35 116.34 0h-14.79C44.6 3.4 6.35 46.36.01 94.43v28.19c4.77 35.79 28.11 70.73 75.29 91.17z" />
            <path fill="#fefbfc"
                d="m60.21 143.46 50.04.17c1.97 14.79-.05 30.86 20.12 30.15 23.45-.83 10.23-19.97 26.36-30.58 10.13 14.64 7.35 27.36-4.59 40.98-15.89 5.25-47.43 3.25-65.38 2.77-30.58-.81-26.86-17.16-26.55-43.49zm-11.36-21.29c12.53-6.3 111.81-6.3 124.34 0-6.8 14.36-16.29 6.33-36.41 9.93-1.05 16.68 3.03 16.9-6.17 28.43-11.21-9.31-5.59-11.87-7.74-29.36l-62.23-.71c-20.61-3.28-7.73-4.49-11.79-8.3zm64.39-29.41c17.14-.49 31.41-12.69 46.29-12.85l5.91 24.93-106.8.27 4.32-25.13c15.82.11 31.23 13.33 50.28 12.78zM74.15 65.45c19.23-24.28 54.52-24.27 73.74 0-19.12 19.39-54.62 19.39-73.74 0zm1.14 148.34 13.38 4.36-1.63-17.38 47.43-1.04-.65 14.06h13.02l2.06-13.43c30.74-18.02 25.63-20.51 25.66-56.97l12.56-16.68c-4.63-19.97-8.15-8.41-11.95-30.87-5.88-34.73-25.32-61.93-66.29-60.7-51.17 1.54-57.68 41.55-62.47 64.58-3.72 17.89-7.07 7.91-12.39 27.75l13.18 16.16c.32 36.28-4.8 38.66 26.38 56.68l1.71 13.48z" />
            <path fill="#d41443"
                d="M156.73 143.19c-16.14 10.62-2.92 29.76-26.36 30.58-20.16.71-18.15-15.36-20.12-30.15l-50.04-.17c-.31 26.33-4.03 42.68 26.55 43.49 17.95.48 49.49 2.48 65.38-2.77 11.94-13.62 14.72-26.34 4.59-40.98z" />
            <path fill="#d41443"
                d="m58.64 105.11 106.8-.27-5.91-24.93c-14.87.17-29.15 12.36-46.29 12.85-19.06.54-34.46-12.68-50.28-12.78l-4.32 25.13zM173.19 122.16c-12.53-6.3-111.81-6.3-124.34 0 4.06 3.81-8.82 5.01 11.79 8.3l62.23.71c2.14 17.49-3.47 20.04 7.74 29.36 9.2-11.53 5.12-11.75 6.17-28.43 20.12-3.6 29.61 4.42 36.41-9.93z" />
            <path fill="#d41443"
                d="M74.15 65.45c19.12 19.39 54.62 19.39 73.74 0-19.22-24.27-54.51-24.28-73.74 0zM122.78 218.15c4.65-.69 8.56-2 11.05-4.36l.65-14.06-47.43 1.04 1.63 17.38h34.11z" />
        </symbol>
        <symbol id="icon-arrow" viewBox="0 0 26 32">
            <path fill="none" stroke="#d41443" style="stroke:var(--color1, #d41443)" stroke-linejoin="round"
                stroke-linecap="round" stroke-width="6.4" d="M5.172 3.2 19.341 16 5.172 28.8" />
        </symbol>
        <symbol id="arrow-right" viewBox="0 0 32 32">
            <path
                d="m19.4 27.4 10-10c.8-.8.8-2 0-2.8l-10-10a2 2 0 1 0-2.8 2.8l6.6 6.6H4a2 2 0 1 0 0 4h19.2l-6.6 6.6a2 2 0 0 0 0 2.8c.8.8 2 .8 2.8 0z" />
        </symbol>
        <symbol id="burger" viewBox="0 0 46 32">
            <path fill="none" stroke="#d41443" style="stroke:var(--color1, #d41443)" stroke-width="2.3"
                d="M0 2.3h45.7M0 16h45.7M0 29.7h45.7" />
        </symbol>
        <symbol id="close" viewBox="0 0 32 32">
            <path fill="none" stroke="#fff" style="stroke:var(--color2, #fff)" stroke-width="2"
                d="m2.5 2 27 28M2 29.5l28-27" />
        </symbol>
        <symbol id="chevron-up" viewBox="0 0 28 32">
            <path
                d="M15.061 8.158l12.146 12.146c0.586 0.586 0.586 1.536 0 2.121l-1.417 1.417c-0.585 0.585-1.533 0.586-2.119 0.003l-9.672-9.626-9.672 9.626c-0.586 0.583-1.534 0.582-2.119-0.003l-1.417-1.417c-0.586-0.586-0.586-1.536 0-2.121l12.146-12.146c0.586-0.586 1.536-0.586 2.121-0z">
            </path>
        </symbol>
    </defs>
</svg>